<svg xmlns="http://www.w3.org/2000/svg" version="1.1" xmlns:xlink="http://www.w3.org/1999/xlink" xmlns:svgjs="http://svgjs.dev/svgjs" width="1000" height="214" viewBox="0 0 1000 214"><g transform="matrix(1,0,0,1,-0.6060606060606233,-0.45713896800464227)"><svg viewBox="0 0 396 85" data-background-color="#0c1d36" preserveAspectRatio="xMidYMid meet" height="214" width="1000" xmlns="http://www.w3.org/2000/svg" xmlns:xlink="http://www.w3.org/1999/xlink"><defs></defs><g id="tight-bounds" transform="matrix(1,0,0,1,0.2400000000000091,0.18157436858254528)"><svg viewBox="0 0 395.52 84.63685174225674" height="84.63685174225674" width="395.52"><g><svg viewBox="0 0 570.3804827057094 122.05503729631866" height="84.63685174225674" width="395.52"><g><rect width="7.964579757004707" height="105.98121907060954" x="146.04621772094367" y="8.03690911285456" fill="#f9cc0b" opacity="1" stroke-width="0" stroke="transparent" fill-opacity="1" class="rect-o-0" data-fill-palette-color="primary" rx="1%" id="o-0" data-palette-color="#f9cc0b"></rect></g><g transform="matrix(1,0,0,1,174.8604827057094,16.868677368738688)"><svg viewBox="0 0 395.52 88.31768255884128" height="88.31768255884128" width="395.52"><g><svg viewBox="0 0 395.52 88.31768255884128" height="88.31768255884128" width="395.52"><g><svg viewBox="0 0 395.52 88.31768255884128" height="88.31768255884128" width="395.52"><g transform="matrix(1,0,0,1,0,0)"><svg width="395.52" viewBox="2.4000000953674316 -30.959999084472656 198.82000732421875 44.39999771118164" height="88.31768255884128" data-palette-color="#f9cc0b"><path d="M23.16-20.56L23.16-20.56Q23.16-20.4 22.82-20.36 22.48-20.32 22.14-20.48 21.8-20.64 21.8-20.92L21.8-20.92Q21.8-25 22.72-27.5 23.64-30 25.12-30L25.12-30Q25.52-30 25.8-29.72 26.08-29.44 26.08-28.96L26.08-28.96Q24.24-27.12 23.48-23.6L23.48-23.6Q23.16-22.16 23.16-20.56ZM20.76-29.04L20.76-29.04Q15.24-29.04 10.88-22.6L10.88-22.6Q7.12-17.04 5.96-9.64L5.96-9.64Q5.56-7.2 5.56-5.16L5.56-5.16Q5.56-1.24 7 1.14 8.44 3.52 11.04 3.52L11.04 3.52Q14.56 3.52 17.04-0.52L17.04-0.52Q18.72-3.24 18.72-5.32L18.72-5.32Q18.72-6.24 18.24-6.24L18.24-6.24Q18.48-7.16 19.44-7.16L19.44-7.16Q20.56-7.16 20.56-5.56L20.56-5.56Q20.56-2.56 17.92 0.84L17.92 0.84Q14.76 4.88 10.52 4.88L10.52 4.88Q5.2 4.88 3.32-0.44L3.32-0.44Q2.4-2.92 2.4-6.06 2.4-9.2 3.44-13.08L3.44-13.08Q5.44-20.76 10.18-25.84 14.92-30.92 20.68-30.96L20.68-30.96Q21.48-30.96 21.84-30.44 22.2-29.92 22.16-29.44L22.16-29.44 22.16-28.92Q21.84-29.04 20.76-29.04ZM38.2 3L38.2 3Q38.68 3 39.1 2.58 39.52 2.16 39.88 1.28L39.88 1.28Q39.92 0.92 40.36 0.92 40.8 0.92 40.7 1.28 40.6 1.64 40.38 2.16 40.16 2.68 39.46 3.54 38.76 4.4 38.04 4.4L38.04 4.4Q36.44 4.4 35.56 2.4L35.56 2.4Q34.64 0.4 34.64-2.54 34.64-5.48 35.08-8.6L35.08-8.6 34.72-8.6Q29.88-0.16 27.28-0.16L27.28-0.16Q24.2-0.16 24.2-4.86 24.2-9.56 26.2-14.24L26.2-14.24Q28.4-19.4 30.08-19.4L30.08-19.4Q30.8-19.4 30.8-18.52L30.8-18.52Q29.12-14.08 27.92-9.88 26.72-5.68 26.72-3.62 26.72-1.56 27.68-1.56L27.68-1.56Q28.36-1.56 29.7-3.2 31.04-4.84 32.44-7.2L32.44-7.2Q35.44-12.28 37.02-15.84 38.6-19.4 40.28-19.4L40.28-19.4Q41.08-19.4 41.08-18.52L41.08-18.52Q38.52-13.44 37.44-6.4L37.44-6.4Q37-3.6 37-0.92L37-0.92Q37 3 38.2 3ZM48.08 0.36L48.08 0.36Q43.16 0.36 43.16-6.4L43.16-6.4Q43.16-10.2 45.08-14L45.08-14Q47.52-18.8 50.88-18.8L50.88-18.8Q51.36-18.8 51.67-18.56 52-18.32 52.12-17.84L52.12-17.84Q49.59-17.84 47.76-13.8 45.91-9.76 45.91-5.84L45.91-5.84Q45.91-1.08 48.52-1.08L48.52-1.08Q49.99-1.08 51.59-3.34 53.2-5.6 54.26-9.28 55.31-12.96 55.31-16.68L55.31-16.68 55.31-17.16Q54.08-17.96 53.27-19.16 52.48-20.36 52.48-20.92 52.48-21.48 52.98-21.98 53.48-22.48 54-22.48L54-22.48Q54.76-22.48 55.48-21.12 56.2-19.76 56.48-18.04L56.48-18.04Q57.72-17.2 58.66-17.2 59.59-17.2 60.16-17.52L60.16-17.52Q60.16-16.96 59.75-16.52 59.36-16.08 58.52-16.08 57.67-16.08 56.59-16.48L56.59-16.48Q56.55-12.64 55.44-8.76 54.31-4.88 52.31-2.26 50.31 0.36 48.08 0.36ZM62.43-6.48L62.79-6.48Q67.95-19.24 72.83-19.24L72.83-19.24Q74.87-19.24 74.87-17.28L74.87-17.28Q74.59-16.36 74.15-14.86 73.71-13.36 72.97-9.48 72.23-5.6 72.23-2.68L72.23-2.68Q72.23 1.56 73.47 1.56L73.47 1.56Q73.95 1.56 74.39 1.18 74.83 0.8 74.99 0.8L74.99 0.8Q75.55 0.8 74.99 1.68L74.99 1.68Q74.79 1.96 74.25 2.44 73.71 2.92 73.15 2.92L73.15 2.92Q71.63 2.92 70.77 0.74 69.91-1.44 69.91-4.92L69.91-4.92Q69.91-10.44 71.63-17.04L71.63-17.04Q71.79-17.56 71.31-17.56L71.31-17.56Q70.99-17.56 70.59-17.24L70.59-17.24Q68.67-15.56 66.55-11.68 64.43-7.8 63.23-4.74 62.03-1.68 62.03-1.18 62.03-0.68 61.47-0.68L61.47-0.68Q60.19-0.68 60.19-3.84L60.19-3.84Q60.19-9.8 61.41-14.64 62.63-19.48 64.35-19.48L64.35-19.48Q65.07-19.48 65.07-18.6L65.07-18.6Q63.23-12.64 62.43-6.48L62.43-6.48ZM80.99 0L80.99 0Q77.71 0 77.71-5.16L77.71-5.16Q77.71-8.24 79.23-11.92L79.23-11.92Q81.35-17.08 84.79-18.96L84.79-18.96Q86.27-19.76 87.55-19.76 88.83-19.76 89.57-19.2 90.31-18.64 90.51-18.08L90.51-18.08 90.75-17.56Q90.63-16.88 90.07-16.88L90.07-16.88Q89.43-16.88 89.33-17.18 89.23-17.48 89.11-17.7 88.99-17.92 88.55-18.3 88.11-18.68 87.55-18.68L87.55-18.68Q84.95-18.68 82.83-14L82.83-14Q80.43-8.6 80.43-3.84L80.43-3.84Q80.43-1.44 81.39-1.44L81.39-1.44Q82.71-1.44 85.65-6.06 88.59-10.68 90.95-15.52L90.95-15.52Q92.15-17.96 93.47-17.96L93.47-17.96Q94.31-17.96 94.31-17L94.31-17Q94.15-16.72 93.83-16.08 93.51-15.44 92.67-12.42 91.83-9.4 91.15-5.5 90.47-1.6 89.99 0.6L89.99 0.6Q93.03 1.12 93.51 3.24L93.51 3.24Q93.59 3.6 93.59 4.22 93.59 4.84 93.11 5.3 92.63 5.76 92.27 5.76L92.27 5.76Q92.35 5.48 92.31 4.78 92.27 4.08 92.05 3.6 91.83 3.12 91.23 2.6 90.63 2.08 89.67 1.84L89.67 1.84Q88.43 6.72 86.11 9.88L86.11 9.88Q83.47 13.44 78.99 13.44L78.99 13.44Q75.71 13.44 74.63 11.12L74.63 11.12Q74.59 11 74.59 10.92L74.59 10.92Q74.59 10.68 75.03 10.58 75.47 10.48 75.63 10.88L75.63 10.88Q76.35 12.52 78.99 12.52L78.99 12.52Q82.59 12.52 84.59 9.12L84.59 9.12Q86.39 6.12 87.35 1.64L87.35 1.64Q80.15 1.8 76.23 7.16L76.23 7.16Q75.99 7.52 75.47 7.28L75.47 7.28Q75.19 7.12 75.31 6.88L75.31 6.88Q77.03 4.28 80.11 2.46 83.19 0.64 87.59 0.48L87.59 0.48Q88.03-1.52 88.37-3.74 88.71-5.96 88.95-7.24 89.19-8.52 89.27-9.08L89.27-9.08 88.83-9.08Q83.55 0 80.99 0ZM98.83-6.48L99.19-6.48Q104.35-19.24 109.23-19.24L109.23-19.24Q111.27-19.24 111.27-17.28L111.27-17.28Q110.99-16.36 110.55-14.86 110.11-13.36 109.37-9.48 108.63-5.6 108.63-2.68L108.63-2.68Q108.63 1.56 109.87 1.56L109.87 1.56Q110.35 1.56 110.79 1.18 111.23 0.8 111.39 0.8L111.39 0.8Q111.95 0.8 111.39 1.68L111.39 1.68Q111.19 1.96 110.65 2.44 110.11 2.92 109.55 2.92L109.55 2.92Q108.03 2.92 107.17 0.74 106.31-1.44 106.31-4.92L106.31-4.92Q106.31-10.44 108.03-17.04L108.03-17.04Q108.19-17.56 107.71-17.56L107.71-17.56Q107.39-17.56 106.99-17.24L106.99-17.24Q105.07-15.56 102.95-11.68 100.83-7.8 99.63-4.74 98.43-1.68 98.43-1.18 98.43-0.68 97.87-0.68L97.87-0.68Q96.59-0.68 96.59-3.84L96.59-3.84Q96.59-9.8 97.81-14.64 99.03-19.48 100.75-19.48L100.75-19.48Q101.47-19.48 101.47-18.6L101.47-18.6Q99.63-12.64 98.83-6.48L98.83-6.48ZM117.39 0L117.39 0Q114.11 0 114.11-5.16L114.11-5.16Q114.11-8.24 115.63-11.92L115.63-11.92Q117.75-17.08 121.19-18.96L121.19-18.96Q122.67-19.76 123.95-19.76 125.23-19.76 125.97-19.2 126.71-18.64 126.91-18.08L126.91-18.08 127.15-17.56Q127.03-16.88 126.47-16.88L126.47-16.88Q125.83-16.88 125.73-17.18 125.63-17.48 125.51-17.7 125.39-17.92 124.95-18.3 124.51-18.68 123.95-18.68L123.95-18.68Q121.35-18.68 119.23-14L119.23-14Q116.83-8.6 116.83-3.84L116.83-3.84Q116.83-1.44 117.79-1.44L117.79-1.44Q119.11-1.44 122.05-6.06 124.99-10.68 127.35-15.52L127.35-15.52Q128.55-17.96 129.87-17.96L129.87-17.96Q130.71-17.96 130.71-17L130.71-17Q130.55-16.72 130.23-16.08 129.91-15.44 129.07-12.42 128.23-9.4 127.55-5.5 126.87-1.6 126.39 0.6L126.39 0.6Q129.43 1.12 129.91 3.24L129.91 3.24Q129.99 3.6 129.99 4.22 129.99 4.84 129.51 5.3 129.03 5.76 128.67 5.76L128.67 5.76Q128.75 5.48 128.71 4.78 128.67 4.08 128.45 3.6 128.23 3.12 127.63 2.6 127.03 2.08 126.07 1.84L126.07 1.84Q124.83 6.72 122.51 9.88L122.51 9.88Q119.87 13.44 115.39 13.44L115.39 13.44Q112.11 13.44 111.03 11.12L111.03 11.12Q110.99 11 110.99 10.92L110.99 10.92Q110.99 10.68 111.43 10.58 111.87 10.48 112.03 10.88L112.03 10.88Q112.75 12.52 115.39 12.52L115.39 12.52Q118.99 12.52 120.99 9.12L120.99 9.12Q122.79 6.12 123.75 1.64L123.75 1.64Q116.55 1.8 112.63 7.16L112.63 7.16Q112.39 7.52 111.87 7.28L111.87 7.28Q111.59 7.12 111.71 6.88L111.71 6.88Q113.43 4.28 116.51 2.46 119.59 0.64 123.99 0.48L123.99 0.48Q124.43-1.52 124.77-3.74 125.11-5.96 125.35-7.24 125.59-8.52 125.67-9.08L125.67-9.08 125.23-9.08Q119.95 0 117.39 0ZM146.5 3L146.5 3Q146.98 3 147.4 2.58 147.82 2.16 148.18 1.28L148.18 1.28Q148.22 0.92 148.66 0.92 149.1 0.92 149 1.28 148.9 1.64 148.68 2.16 148.46 2.68 147.76 3.54 147.06 4.4 146.34 4.4L146.34 4.4Q144.74 4.4 143.86 2.4L143.86 2.4Q142.94 0.4 142.94-2.54 142.94-5.48 143.38-8.6L143.38-8.6 143.02-8.6Q138.18-0.16 135.58-0.16L135.58-0.16Q132.5-0.16 132.5-4.86 132.5-9.56 134.5-14.24L134.5-14.24Q136.7-19.4 138.38-19.4L138.38-19.4Q139.1-19.4 139.1-18.52L139.1-18.52Q137.42-14.08 136.22-9.88 135.02-5.68 135.02-3.62 135.02-1.56 135.98-1.56L135.98-1.56Q136.66-1.56 138-3.2 139.34-4.84 140.74-7.2L140.74-7.2Q143.74-12.28 145.32-15.84 146.9-19.4 148.58-19.4L148.58-19.4Q149.38-19.4 149.38-18.52L149.38-18.52Q146.82-13.44 145.74-6.4L145.74-6.4Q145.3-3.6 145.3-0.92L145.3-0.92Q145.3 3 146.5 3ZM152.58 12.52L152.58 12.52Q156.18 12.52 158.22 9.12L158.22 9.12Q159.98 6.12 160.94 1.64L160.94 1.64Q153.7 1.8 149.82 7.16L149.82 7.16Q149.58 7.52 149.06 7.28L149.06 7.28Q148.78 7.12 148.9 6.88L148.9 6.88Q150.62 4.28 153.7 2.46 156.78 0.64 161.18 0.48L161.18 0.48Q161.62-1.52 162.02-4.2 162.42-6.88 162.94-9.4L162.94-9.4 162.58-9.4Q157.38-0.16 154.66-0.16L154.66-0.16Q151.62-0.16 151.62-4.84 151.62-9.52 153.62-14.26 155.62-19 157.26-19.36L157.26-19.36 157.5-19.4Q158.18-19.4 158.18-18.52L158.18-18.52Q157.74-17.44 157.06-15.7 156.38-13.96 155.26-9.98 154.14-6 154.14-3.78 154.14-1.56 155.1-1.56L155.1-1.56Q156.22-1.56 158.7-5.44L158.7-5.44Q162.34-11.12 165.02-16.96L165.02-16.96Q166.18-19.4 167.5-19.4L167.5-19.4Q168.34-19.4 168.34-18.48L168.34-18.48Q167.58-17.08 166.5-13.24 165.42-9.4 164.74-5.5 164.06-1.6 163.58 0.6L163.58 0.6Q166.62 1.12 167.1 3.24L167.1 3.24Q167.18 3.6 167.18 4.22 167.18 4.84 166.7 5.3 166.22 5.76 165.86 5.76L165.86 5.76Q165.94 5.48 165.9 4.78 165.86 4.08 165.64 3.6 165.42 3.12 164.82 2.6 164.22 2.08 163.26 1.84L163.26 1.84Q160.18 13.44 152.58 13.44L152.58 13.44Q149.3 13.44 148.22 11.12L148.22 11.12Q148.18 11 148.18 10.92L148.18 10.92Q148.18 10.68 148.6 10.62 149.02 10.56 149.22 10.88L149.22 10.88Q149.94 12.52 152.58 12.52ZM180.54-19.4L180.54-19.4Q183.58-19.4 183.58-15.84L183.58-15.84Q183.58-13.8 182.22-11.56L182.22-11.56Q179.9-7.84 176.06-7.84L176.06-7.84Q175.46-7.84 175.06-8.04 174.66-8.24 174.46-8.64L174.46-8.64Q177.3-8.64 179.66-11.92L179.66-11.92Q181.58-14.56 181.58-16.76L181.58-16.76Q181.58-18.4 180.26-18.4L180.26-18.4Q177.62-18.4 175.34-14.28L175.34-14.28Q172.9-9.8 172.9-5.08L172.9-5.08Q172.9-1.08 175.18-0.28L175.18-0.28Q175.62-0.12 176.3-0.12 176.98-0.12 177.74-0.46 178.5-0.8 179.02-1.28L179.02-1.28Q180.06-2.24 180.74-3.4L180.74-3.4Q180.9-3.72 181.34-3.72L181.34-3.72Q182.06-3.72 182.02-3.48L182.02-3.48Q181.9-3.04 181.12-2 180.34-0.96 179.68-0.34 179.02 0.28 177.96 0.78 176.9 1.28 175.82 1.28L175.82 1.28Q171.58 1.28 170.42-2.72L170.42-2.72Q170.06-4.08 170.06-5.52L170.06-5.52Q170.06-8.2 171.3-11.36L171.3-11.36Q173.26-16.16 176.7-18.28L176.7-18.28Q178.58-19.4 180.54-19.4ZM188.38-6.48L188.74-6.48Q193.9-19.24 198.78-19.24L198.78-19.24Q200.82-19.24 200.82-17.28L200.82-17.28Q200.54-16.36 200.1-14.86 199.66-13.36 198.92-9.48 198.18-5.6 198.18-2.68L198.18-2.68Q198.18 1.56 199.42 1.56L199.42 1.56Q199.9 1.56 200.34 1.18 200.78 0.8 200.94 0.8L200.94 0.8Q201.5 0.8 200.94 1.68L200.94 1.68Q200.74 1.96 200.2 2.44 199.66 2.92 199.1 2.92L199.1 2.92Q197.58 2.92 196.72 0.74 195.86-1.44 195.86-4.92L195.86-4.92Q195.86-10.44 197.58-17.04L197.58-17.04Q197.74-17.56 197.26-17.56L197.26-17.56Q196.94-17.56 196.54-17.24L196.54-17.24Q194.62-15.56 192.5-11.68 190.38-7.8 189.18-4.74 187.98-1.68 187.98-1.18 187.98-0.68 187.42-0.68L187.42-0.68Q186.14-0.68 186.14-3.84L186.14-3.84Q186.14-9.8 187.36-14.64 188.58-19.48 190.3-19.48L190.3-19.48Q191.02-19.48 191.02-18.6L191.02-18.6Q189.18-12.64 188.38-6.48L188.38-6.48Z" opacity="1" transform="matrix(1,0,0,1,0,0)" fill="#f9cc0b" class="undefined-text-0" data-fill-palette-color="primary" id="text-0"></path></svg></g></svg></g></svg></g></svg></g><g><svg viewBox="0 0 125.19653249318266 122.05503729631866" height="122.05503729631866" width="125.19653249318266"><g><svg xmlns="http://www.w3.org/2000/svg" data-name="Layer 1" viewBox="13.90999984741211 14.640000343322754 62.17000198364258 60.61000061035156" x="0" y="0" height="122.05503729631866" width="125.19653249318266" class="icon-icon-0" data-fill-palette-color="accent" id="icon-0"><path d="M69.93 26.65L45 14.64l-24.93 12-6.16 27L31.17 75.25H58.83L76.08 53.62ZM57.87 73.25H32.13l-16-20.12L21.81 28 45 16.86 68.19 28l5.73 25.09Z" fill="#f9f9f9" data-fill-palette-color="accent"></path><path d="M20.94 51.21a1 1 0 0 0-0.9-0.28l-0.19 0.06-0.17 0.09a0.87 0.87 0 0 0-0.15 0.13 0.92 0.92 0 0 0-0.29 0.7 1 1 0 0 0 0.07 0.39 1 1 0 0 0 0.93 0.61 1 1 0 0 0 0.7-0.29 0.87 0.87 0 0 0 0.22-0.32 1 1 0 0 0 0.08-0.39 1 1 0 0 0-0.08-0.38A0.87 0.87 0 0 0 20.94 51.21Z" fill="#f9f9f9" data-fill-palette-color="accent"></path><path d="M42 44.8a1 1 0 0 0 0.27 2 0.83 0.83 0 0 0 0.27 0A1 1 0 1 0 42 44.8Z" fill="#f9f9f9" data-fill-palette-color="accent"></path><path d="M36.5 46.34a1 1 0 0 0 0.27 2 0.84 0.84 0 0 0 0.27 0 1 1 0 0 0-0.54-1.92Z" fill="#f9f9f9" data-fill-palette-color="accent"></path><path d="M52 40.9a1 1 0 0 0 0.8-1.59 1 1 0 0 0-1.61 1.18A1 1 0 0 0 52 40.9Z" fill="#f9f9f9" data-fill-palette-color="accent"></path><path d="M25.48 49.4a1 1 0 0 0 0.27 2 1.28 1.28 0 0 0 0.27 0 1 1 0 0 0-0.54-1.93Z" fill="#f9f9f9" data-fill-palette-color="accent"></path><path d="M31 47.86a1 1 0 0 0-0.69 1.24 1 1 0 0 0 1 0.73 0.87 0.87 0 0 0 0.27 0A1 1 0 0 0 31 47.86Z" fill="#f9f9f9" data-fill-palette-color="accent"></path><path d="M47.34 44.29a1 1 0 0 0 0.59-0.2 1 1 0 0 0 0.21-1.39 1 1 0 1 0-0.8 1.59Z" fill="#f9f9f9" data-fill-palette-color="accent"></path><path d="M60.58 32.31a1 1 0 0 0 0.59 1.81A1 1 0 0 0 62 32.54 1 1 0 0 0 60.58 32.31Z" fill="#f9f9f9" data-fill-palette-color="accent"></path><path d="M56 35.71a1 1 0 0 0-0.22 1.4 1 1 0 0 0 0.81 0.41A1 1 0 1 0 56 35.71Z" fill="#f9f9f9" data-fill-palette-color="accent"></path><path d="M65.4 28.81a1 1 0 0 0-0.32 0.22 1 1 0 0 0-0.3 0.71 1 1 0 0 0 0.3 0.7 1 1 0 0 0 0.7 0.3A1 1 0 0 0 66.49 29 1 1 0 0 0 65.4 28.81Z" fill="#f9f9f9" data-fill-palette-color="accent"></path><path d="M57.14 69.35a1 1 0 0 0-0.9-0.28 0.67 0.67 0 0 0-0.19 0.06 0.88 0.88 0 0 0-0.17 0.09 0.64 0.64 0 0 0-0.15 0.13 1 1 0 0 0-0.22 0.32 1 1 0 0 0 0.22 1.09A1 1 0 0 0 56 71 1 1 0 0 0 57.43 70a1 1 0 0 0-0.07-0.38A1 1 0 0 0 57.14 69.35Z" fill="#f9f9f9" data-fill-palette-color="accent"></path><path d="M51.91 60.14a1 1 0 0 0-0.5 1.33 1 1 0 0 0 0.92 0.58 1 1 0 1 0-0.42-1.91Z" fill="#f9f9f9" data-fill-palette-color="accent"></path><path d="M54 64.64a1 1 0 0 0 0.42 1.91 1.07 1.07 0 0 0 0.42-0.09 1 1 0 0 0 0.49-1.32A1 1 0 0 0 54 64.64Z" fill="#f9f9f9" data-fill-palette-color="accent"></path><path d="M49.85 55.64a1 1 0 0 0 0.42 1.91 1.06 1.06 0 0 0 0.42-0.09 1 1 0 1 0-0.84-1.82Z" fill="#f9f9f9" data-fill-palette-color="accent"></path><path d="M47.8 51.14A1 1 0 0 0 48.22 53a1 1 0 0 0 0.41-0.09 1 1 0 0 0 0.49-1.33A1 1 0 0 0 47.8 51.14Z" fill="#f9f9f9" data-fill-palette-color="accent"></path><path d="M46.87 46.84a1 1 0 0 0-1.09-0.21 1.15 1.15 0 0 0-0.33 0.21 1 1 0 0 0-0.21 0.33 0.94 0.94 0 0 0 0 0.76 0.9 0.9 0 0 0 0.54 0.54 1 1 0 0 0 0.38 0.08 1 1 0 0 0 0.38-0.08 1 1 0 0 0 0.33-0.21 1.2 1.2 0 0 0 0.22-0.33 1.06 1.06 0 0 0 0-0.76A1.44 1.44 0 0 0 46.87 46.84Z" fill="#f9f9f9" data-fill-palette-color="accent"></path></svg></g></svg></g></svg></g></svg><rect width="395.52" height="84.63685174225674" fill="none" stroke="none" visibility="hidden"></rect></g></svg></g></svg>